<svg xmlns="http://www.w3.org/2000/svg" width="44" height="52"><path d="M21.819 28h.351a9.626 9.626 0 0 0 7.428-3.284c4.065-4.669 3.381-12.675 3.326-13.441-.3-5.734-2.949-8.478-5.14-9.765A11.522 11.522 0 0 0 22.114 0h-.177a11.538 11.538 0 0 0-5.68 1.476C14.04 2.756 11.35 5.5 11.084 11.29c-.074.755-.739 8.768 3.326 13.441A9.647 9.647 0 0 0 21.819 28Zm-7.912-16.454v-.086c.358-7.715 5.72-8.542 8.019-8.542h.126c2.845.064 7.679 1.249 8.008 8.546a.216.216 0 0 0 0 .087c0 .075.739 7.394-2.587 11.245a6.945 6.945 0 0 1-5.425 2.3h-.107a6.812 6.812 0 0 1-5.414-2.3c-3.348-3.836-2.631-11.185-2.62-11.25Z"/><path d="M44.001 41.372v-.3c-.064-2.121-.2-7.084-4.851-8.67l-.109-.034a30.9 30.9 0 0 1-8.9-4.053 1.447 1.447 0 1 0-1.661 2.369 33.353 33.353 0 0 0 9.77 4.47c2.495.891 2.773 3.557 2.848 6.016a2.152 2.152 0 0 0 0 .267 19.471 19.471 0 0 1-.225 3.312c-1.71.974-8.515 4.384-18.863 4.384S4.855 45.71 3.112 44.725a18.435 18.435 0 0 1-.225-3.312v-.267c.075-2.444.353-5.113 2.848-6.016a33.665 33.665 0 0 0 9.77-4.47 1.447 1.447 0 1 0-1.661-2.369 30.562 30.562 0 0 1-8.868 4.064l-.109.034C.219 33.987.08 38.946.001 41.059a2.156 2.156 0 0 1 0 .267v.034a16.814 16.814 0 0 0 .545 4.854 1.376 1.376 0 0 0 .56.662c.323.214 8.022 5.125 20.911 5.125s20.584-4.922 20.91-5.125a1.436 1.436 0 0 0 .556-.673 17.018 17.018 0 0 0 .518-4.831Z"/></svg>