<svg xmlns="http://www.w3.org/2000/svg" width="27" height="27"><path d="M0 0h27v27H0Z" transform="translate(0 -.001)" style="fill:none"/><path d="M7.022 11.656a16.832 16.832 0 0 0 7.322 7.322l2.444-2.444a1.1 1.1 0 0 1 1.133-.267 12.675 12.675 0 0 0 3.967.633A1.114 1.114 0 0 1 23 18.011v3.878A1.114 1.114 0 0 1 21.889 23 18.887 18.887 0 0 1 3 4.111 1.114 1.114 0 0 1 4.111 3H8a1.114 1.114 0 0 1 1.111 1.111 12.623 12.623 0 0 0 .633 3.967 1.115 1.115 0 0 1-.278 1.133Z" style="stroke:#08a6e4;stroke-width:2px;fill:none"/></svg>